<?xml version="1.0" encoding="UTF-8" standalone="no"?>
<svg
   xmlns:dc="http://purl.org/dc/elements/1.1/"
   xmlns:cc="http://creativecommons.org/ns#"
   xmlns:rdf="http://www.w3.org/1999/02/22-rdf-syntax-ns#"
   xmlns:svg="http://www.w3.org/2000/svg"
   xmlns="http://www.w3.org/2000/svg"
   viewBox="0 0 133.33333 133.33333"
   height="133.33333"
   width="133.33333"
   xml:space="preserve"
   id="svg2"
   version="1.1"><metadata
     id="metadata8"><rdf:RDF><cc:Work
         rdf:about=""><dc:format>image/svg+xml</dc:format><dc:type
           rdf:resource="http://purl.org/dc/dcmitype/StillImage" /></cc:Work></rdf:RDF></metadata><defs
     id="defs6" /><g
     transform="matrix(1.3333333,0,0,-1.3333333,0,133.33333)"
     id="g10"><g
       transform="scale(0.1)"
       id="g12"><path
         id="path14"
         style="fill:#51a4df;fill-opacity:1;fill-rule:nonzero;stroke:none"
         d="M 0,0 V 1000 H 1000 V 0 H 0" /><path
         id="path16"
         style="fill:#ffffff;fill-opacity:1;fill-rule:nonzero;stroke:none"
         d="m 533.32,111.602 c -13.164,0 -25.039,5.664 -33.32,14.687 -8.281,-9.023 -20.16,-14.687 -33.32,-14.687 -22.93,0 -41.91,17.07 -44.84,39.179 C 238.051,186.836 103.16,345.43 110.699,522.27 l -0.039,-1.29 v 178.942 c 0,12.109 4.731,23.437 13.289,31.918 8.321,8.39 19.641,13.121 31.711,13.121 11.879,0 23.051,-4.57 31.449,-12.852 73.551,97.231 189.371,156.289 310.551,156.289 h 4.684 c 121.133,0 236.992,-59.058 310.508,-156.289 8.476,8.282 19.609,12.852 31.484,12.852 11.992,0 23.32,-4.691 31.797,-13.16 8.515,-8.52 13.203,-19.809 13.203,-31.879 V 521.211 C 896.289,344.805 761.563,186.797 578.164,150.781 575.195,128.672 556.211,111.602 533.32,111.602" /><path
         id="path18"
         style="fill:#ffffff;fill-opacity:1;fill-rule:nonzero;stroke:none"
         d="m 500,407.969 c -3.672,0 -7.23,-2.071 -8.949,-5.313 -28.551,-53.32 -84.879,-87.851 -145.93,-87.851 h -1.101 c -44.411,0.351 -85.86,17.89 -117.028,49.531 -30.902,31.445 -47.773,72.734 -47.851,116.797 v 0.781 l -0.27,0.391 h 0.348 c 0.551,91.093 75.082,165.316 165.82,165.234 h 1.051 c 60.75,-0.348 116.609,-35 144.961,-87.891 l 3.719,-6.878 c -12.27,-15.43 -19.5,-33.04 -19.5,-51.75 l 0.121,-1.02 c 0.199,-20.039 8.558,-38.945 22.699,-55.234 l 1.871,-0.782 h 0.078 l 1.875,0.782 c 14.141,16.289 22.5,35.195 22.695,55.234 l 0.118,1.02 c 0,18.71 -7.227,36.32 -19.493,51.75 l 3.711,6.878 c 28.36,52.891 84.219,87.543 144.961,87.891 h 1.055 c 90.742,0.082 165.273,-74.141 165.82,-165.234 h 0.352 l -0.274,-0.391 v -0.781 C 820.781,437.07 803.906,395.781 773.008,364.336 741.836,332.695 700.391,315.156 655.977,314.805 h -1.094 c -61.055,0 -117.383,34.531 -145.938,87.851 -1.718,3.242 -5.273,5.313 -8.945,5.313 v 0" /><path
         id="path20"
         style="fill:#a3a1a1;fill-opacity:1;fill-rule:nonzero;stroke:none"
         d="m 664.063,615.352 c -1.016,-0.082 -2.071,-0.082 -3.086,-0.192 1.015,0.11 2.07,0.11 3.086,0.11 v 0.082" /><path
         id="path22"
         style="fill:#b8b7b7;fill-opacity:1;fill-rule:nonzero;stroke:none"
         d="m 335.938,615.352 v -0.082 c 1.054,0 2.07,0 3.125,-0.071 -1.055,0.071 -2.071,0.071 -3.125,0.153" /><path
         id="path24"
         style="fill:#51a4df;fill-opacity:1;fill-rule:evenodd;stroke:none"
         d="m 339.063,615.16 c -1.012,0.07 -2.071,0.11 -3.125,0.153 0.273,-5.622 5.511,-10.973 10.511,-15.543 6.129,-5.79 10.071,-11.329 10.031,-20.75 v -0.071 c -0.031,-13.988 -11.949,-24.027 -25.07,-24.07 h -0.039 c -13.281,0.082 -24.101,11.684 -24.183,24.379 v 0.433 c -0.04,9.567 5.082,15.231 9.652,19.649 5,4.961 9.918,8.859 10.191,15.93 -58.48,-2.5 -104.961,-50.969 -104.531,-110.192 0.391,-60.625 49.688,-109.414 110.078,-109.023 60.43,0.429 109.024,49.883 108.633,110.508 -0.391,57.847 -45.469,104.886 -102.148,108.597" /><path
         id="path26"
         style="fill:#231f20;fill-opacity:1;fill-rule:nonzero;stroke:none"
         d="m 500,171.797 h 4.648 c 4.493,0.039 8.985,0.234 13.438,0.43 v -16.914 c 0,-8.555 6.719,-15.313 15.273,-15.313 8.555,0 15.274,6.758 15.274,15.313 v 19.609 c 170.703,22.344 318.75,165.43 311.094,346.129 v 179.808 c 0,3.832 -1.485,7.692 -4.414,10.621 -2.93,2.93 -6.797,4.418 -10.586,4.418 -3.868,0 -7.696,-1.488 -10.625,-4.418 L 808.867,686.172 C 744.727,790.742 627.656,860.859 500,860 372.34,860.859 255.27,790.742 191.129,686.172 l -25.231,25.308 c -2.929,2.93 -6.757,4.418 -10.628,4.418 -3.79,0 -7.649,-1.488 -10.582,-4.418 -2.93,-2.929 -4.418,-6.789 -4.418,-10.621 V 521.051 C 132.621,340.352 280.66,197.266 451.371,174.922 v -19.609 c 0,-8.555 6.719,-15.313 15.27,-15.313 8.558,0 15.269,6.758 15.269,15.313 v 16.914 c 4.461,-0.196 8.949,-0.391 13.442,-0.43 z m 0,236.172 c -3.672,0 -7.23,-2.071 -8.949,-5.313 -28.551,-53.32 -84.879,-87.851 -145.93,-87.851 h -1.101 c -44.411,0.351 -85.86,17.89 -117.028,49.531 -30.902,31.445 -47.773,72.734 -47.851,116.797 v 0.781 l -0.27,0.391 h 0.348 c 0.551,91.093 75.082,165.316 165.82,165.234 h 1.051 c 60.75,-0.348 116.609,-35 144.961,-87.891 l 3.719,-6.878 c -12.27,-15.43 -19.5,-33.04 -19.5,-51.75 l 0.121,-1.02 c 0.199,-20.039 8.558,-38.945 22.699,-55.234 l 1.871,-0.782 h 0.078 l 1.875,0.782 c 14.141,16.289 22.5,35.195 22.695,55.234 l 0.118,1.02 c 0,18.71 -7.227,36.32 -19.493,51.75 l 3.711,6.878 c 28.36,52.891 84.219,87.543 144.961,87.891 h 1.055 c 90.742,0.082 165.273,-74.141 165.82,-165.234 h 0.352 l -0.274,-0.391 v -0.781 C 820.781,437.07 803.906,395.781 773.008,364.336 741.836,332.695 700.391,315.156 655.977,314.805 h -1.094 c -61.055,0 -117.383,34.531 -145.938,87.851 -1.718,3.242 -5.273,5.313 -8.945,5.313 v 0" /><path
         id="path28"
         style="fill:#275d8f;fill-opacity:1;fill-rule:nonzero;stroke:none"
         d="m 346.449,599.77 c 6.129,-5.79 10.11,-11.329 10.031,-20.75 v -0.071 c -0.031,-13.988 -11.949,-24.027 -25.031,-24.07 h -0.078 c -13.281,0.082 -24.101,11.684 -24.183,24.379 v 0.433 c -0.04,9.567 5.082,15.231 9.652,19.649 5.039,4.961 9.879,8.859 10.23,15.93 -39.261,-2.457 -70.23,-35.27 -69.961,-75.231 0.27,-41.406 33.942,-74.726 75.231,-74.453 41.289,0.273 74.5,34.102 74.223,75.465 -0.235,38.75 -29.844,70.512 -67.5,74.109 -1.055,0.07 -2.071,0.11 -3.125,0.153 0.273,-5.622 5.511,-10.973 10.511,-15.543" /><path
         id="path30"
         style="fill:#b8b7b7;fill-opacity:1;fill-rule:nonzero;stroke:none"
         d="m 664.063,615.352 v -0.082 c -1.055,0 -2.071,0 -3.125,-0.071 1.054,0.071 2.07,0.071 3.125,0.153" /><path
         id="path32"
         style="fill:#ed1d24;fill-opacity:1;fill-rule:evenodd;stroke:none"
         d="m 660.938,615.16 c 1.015,0.07 2.07,0.11 3.125,0.153 -0.274,-5.622 -5.508,-10.973 -10.508,-15.543 -6.133,-5.79 -10.078,-11.329 -10.039,-20.75 v -0.071 c 0.039,-13.988 11.953,-24.027 25.078,-24.07 h 0.039 c 13.281,0.082 24.101,11.684 24.18,24.379 v 0.433 c 0.039,9.567 -5.079,15.231 -9.649,19.649 -5,4.961 -9.883,8.859 -10.195,15.93 58.476,-2.5 104.961,-50.969 104.531,-110.192 -0.391,-60.625 -49.687,-109.414 -110.078,-109.023 -60.43,0.429 -109.024,49.883 -108.633,110.508 0.391,57.847 45.469,104.886 102.149,108.597" /><path
         id="path34"
         style="fill:#ab1c22;fill-opacity:1;fill-rule:nonzero;stroke:none"
         d="m 653.555,599.77 c -6.094,-5.79 -10.078,-11.329 -10.039,-20.75 v -0.071 c 0.039,-13.988 11.953,-24.027 25.078,-24.07 h 0.039 c 13.281,0.082 24.101,11.684 24.18,24.379 v 0.433 c 0.039,9.567 -5.079,15.231 -9.649,19.649 -5,4.961 -9.883,8.859 -10.195,15.93 39.219,-2.457 70.195,-35.27 69.922,-75.231 -0.274,-41.406 -33.946,-74.726 -75.235,-74.453 -41.289,0.273 -74.492,34.102 -74.218,75.465 0.234,38.75 29.843,70.512 67.5,74.109 1.054,0.07 2.07,0.11 3.125,0.153 -0.274,-5.622 -5.508,-10.973 -10.508,-15.543" /></g></g></svg>